{"accessors":[{"bufferView":0,"byteOffset":0,"componentType":5126,"count":1806,"max":[262.0,50.0,200.0],"min":[-138.0,-113.0,-200.0],"normalized":false,"type":"VEC3"},{"bufferView":1,"byteOffset":0,"componentType":5126,"count":1806,"max":[0.0,0.0,0.0000763009302318096,-1.0],"min":[-1.0,-1.0,-1.0,-1.0],"normalized":false,"type":"VEC4"},{"bufferView":2,"byteOffset":0,"componentType":5126,"count":1806,"max":[1.0,1.0,1.0],"min":[-1.0,-1.0,-1.0],"normalized":false,"type":"VEC3"},{"bufferView":3,"byteOffset":0,"componentType":5126,"count":1806,"max":[1.0,1.0],"min":[0.0,0.0],"normalized":false,"type":"VEC2"},{"bufferView":4,"byteOffset":0,"componentType":5123,"count":1806,"max":[1805.0],"min":[0.0],"normalized":false,"type":"SCALAR"}],"asset":{"generator":"Godot Engine v4.4.stable.official@4c311cbee68c0b66ff8ebb8b0defdd9979dd2a41","version":"2.0"},"bufferViews":[{"buffer":0,"byteLength":21672,"byteOffset":0,"byteStride":12,"target":34962},{"buffer":0,"byteLength":28896,"byteOffset":21672,"byteStride":16,"target":34962},{"buffer":0,"byteLength":21672,"byteOffset":50568,"byteStride":12,"target":34962},{"buffer":0,"byteLength":14448,"byteOffset":72240,"byteStride":8,"target":34962},{"buffer":0,"byteLength":3612,"byteOffset":86688,"target":34963}],"buffers":[{"byteLength":90300,"uri":"city_tile_scene0.bin"}],"extensionsUsed":["GODOT_single_root"],"materials":[{"extensions":{},"pbrMetallicRoughness":{"baseColorFactor":[1.0,1.0,1.0,1.0],"metallicFactor":0.0,"roughnessFactor":1.0}}],"meshes":[{"extras":{"targetNames":[]},"primitives":[{"attributes":{"NORMAL":2,"POSITION":0,"TANGENT":1,"TEXCOORD_0":3},"indices":4,"material":0,"mode":4}]}],"nodes":[{"children":[1],"name":"CityTileScene"},{"children":[2,3,4,5,6,7,8,9,10,11,12,13,14,15,16,17,18,19,20,21],"mesh":0,"name":"City2","translation":[-62.0,-256.0,0.0]},{"name":"Floor","translation":[62.0,0.0,0.0]},{"name":"CSGBox3D2","translation":[-100.0,0.0,116.0]},{"name":"CSGBox3D3","translation":[-95.0,0.0,-17.0]},{"name":"CSGBox3D4","translation":[65.0,0.0,91.0]},{"name":"CSGBox3D5","translation":[145.0,0.0,-34.0]},{"name":"CSGBox3D18","translation":[203.0,0.0,79.0]},{"name":"CSGBox3D6","translation":[1.0,0.0,-154.0]},{"name":"CSGBox3D19","translation":[170.0,0.0,-94.0]},{"name":"CSGBox3D7","translation":[-30.0,-2.0,43.0]},{"name":"CSGBox3D8","translation":[-92.0,-2.0,-136.0]},{"name":"CSGBox3D9","translation":[55.0,-2.0,-92.0]},{"name":"CSGBox3D10","translation":[137.0,-2.0,93.0]},{"name":"CSGBox3D20","translation":[197.0,-18.0,-17.0]},{"name":"CSGBox3D17","translation":[216.0,-2.0,-150.0]},{"name":"CSGBox3D11","translation":[43.0,-63.0,-8.0]},{"name":"CSGBox3D12","translation":[-35.0,-12.0,-60.0]},{"name":"CSGBox3D16","translation":[196.0,-12.0,148.0]},{"name":"CSGBox3D13","translation":[-10.0,-12.0,156.0]},{"name":"CSGBox3D14","translation":[121.0,-12.0,19.0]},{"name":"CSGBox3D15","translation":[102.0,-12.0,-136.0]}],"scene":0,"scenes":[{"nodes":[0]}]}